<svg width="200" height="73" viewBox="0 0 200 73" xmlns="http://www.w3.org/2000/svg" xmlns:xlink="http://www.w3.org/1999/xlink"><title>ic-postman-logo</title><defs><path id="a" d="M0 .135h200V72H0V.135z"/><path id="c" d="M0 .135h200V72H0"/></defs><g fill="none" fill-rule="evenodd"><path d="M83.368 35.28h3.233c1.006 0 1.784-.283 2.335-.85.551-.568.827-1.418.827-2.55v-.288c0-1.134-.276-1.984-.827-2.55-.55-.568-1.329-.852-2.335-.852h-3.233v7.09zm-2.012 7.88V27.064c0-.19.076-.355.228-.49a.843.843 0 0 1 .586-.205h4.527c1.533 0 2.762.416 3.688 1.246.926.83 1.39 2.14 1.39 3.928v.215c0 1.79-.472 3.101-1.414 3.94-.942.84-2.196 1.257-3.76 1.257h-3.233v6.203c0 .225-.1.4-.299.527a1.295 1.295 0 0 1-.707.192c-.272 0-.507-.065-.706-.192a.592.592 0 0 1-.3-.527zm19.447-4.36c0 2.268 1.045 3.4 3.137 3.4 1.007 0 1.784-.282 2.336-.85.55-.566.826-1.415.826-2.55v-7.208c0-1.134-.275-1.983-.826-2.551-.552-.566-1.33-.85-2.336-.85-2.092 0-3.137 1.134-3.137 3.4V38.8zm-2.011 0v-7.208c0-1.804.467-3.126 1.4-3.964.935-.838 2.184-1.258 3.748-1.258 1.565 0 2.819.42 3.76 1.258.942.838 1.414 2.16 1.414 3.964V38.8c0 1.805-.472 3.126-1.413 3.965-.942.838-2.196 1.257-3.761 1.257-1.564 0-2.813-.42-3.747-1.257-.934-.84-1.401-2.16-1.401-3.965zm17.434 2.611c0-.256.092-.504.275-.742.184-.24.387-.36.611-.36.144 0 .327.1.551.3.223.2.455.423.694.67.24.247.615.472 1.126.671a4.72 4.72 0 0 0 1.724.3c1.038 0 1.852-.253 2.443-.755.591-.504.887-1.242.887-2.215 0-.879-.272-1.594-.815-2.144a5.369 5.369 0 0 0-1.964-1.258 58.768 58.768 0 0 1-2.31-.922 4.976 4.976 0 0 1-1.977-1.508c-.543-.68-.814-1.553-.814-2.623 0-.839.16-1.569.48-2.19.318-.62.745-1.089 1.28-1.405a6.381 6.381 0 0 1 1.665-.69 7.517 7.517 0 0 1 1.844-.217c.99 0 1.936.144 2.838.43.901.287 1.353.685 1.353 1.193 0 .225-.08.465-.24.722-.159.257-.367.386-.622.386-.064 0-.43-.153-1.102-.456-.67-.303-1.413-.455-2.227-.455-.974 0-1.76.2-2.359.598-.599.4-.899 1.03-.899 1.893 0 .734.272 1.33.815 1.784.543.455 1.201.818 1.976 1.09a27.3 27.3 0 0 1 2.311.933c.767.352 1.421.915 1.964 1.69.543.774.814 1.76.814 2.957 0 1.645-.479 2.885-1.437 3.723-.958.84-2.227 1.258-3.808 1.258-1.42 0-2.622-.298-3.604-.894-.982-.596-1.473-1.184-1.473-1.764m16.334-14.153c0-.233.063-.44.191-.618a.611.611 0 0 1 .527-.27h9.747c.223 0 .4.09.527.27.128.178.192.385.192.618 0 .249-.064.466-.192.653a.605.605 0 0 1-.527.28h-3.856v14.966a.6.6 0 0 1-.299.529c-.2.128-.435.192-.707.192a1.28 1.28 0 0 1-.706-.192.596.596 0 0 1-.299-.53V28.192h-3.88a.612.612 0 0 1-.527-.268c-.128-.18-.192-.4-.192-.665m18.01 15.901V27.351c0-.654.336-.982 1.006-.982.639 0 1.174.424 1.604 1.27l3.76 7.208 3.785-7.209c.463-.845.997-1.269 1.605-1.269.67 0 1.005.328 1.005.982V43.16c0 .225-.1.4-.3.527-.2.127-.434.192-.705.192-.272 0-.508-.065-.707-.192a.594.594 0 0 1-.3-.527V30.585l-3.616 6.803c-.192.367-.455.55-.79.55-.304 0-.551-.183-.743-.55l-3.592-6.898v12.67c0 .224-.1.398-.3.526-.2.127-.435.192-.706.192-.272 0-.507-.065-.706-.192a.594.594 0 0 1-.3-.527m23.139-4.957h5.345l-2.665-9.022-2.68 9.022zm-3.477 4.838c0-.032.016-.096.048-.192l4.901-15.92c.14-.468.548-.7 1.221-.7s1.08.234 1.221.703l4.92 15.98a.31.31 0 0 0 .012.09.28.28 0 0 1 .01.067c0 .21-.13.398-.394.562a1.562 1.562 0 0 1-.85.248c-.383 0-.624-.15-.719-.453l-1.053-3.547h-6.338l-1.05 3.535c-.095.31-.338.465-.728.465a1.52 1.52 0 0 1-.813-.24c-.258-.16-.388-.359-.388-.598zm19.255.12V27.064c0-.463.336-.695 1.006-.695.336 0 .619.101.85.3.232.2.459.523.683.97l5.963 11.664V27.065c0-.223.1-.395.3-.515.199-.12.434-.18.706-.18.27 0 .507.06.707.18a.57.57 0 0 1 .299.515V43.16c0 .225-.1.4-.3.527-.2.127-.435.192-.706.192-.511 0-.934-.303-1.27-.91l-6.226-12.047V43.16c0 .225-.1.4-.3.527a1.29 1.29 0 0 1-.706.192c-.271 0-.507-.065-.706-.192a.594.594 0 0 1-.3-.527" fill="#F15A24"/><mask id="b" fill="#fff"><use xlink:href="#a"/></mask><path d="M12.525 69.85L0 70.287l6.42-6.53 6.105 6.095z" fill="#F15A24" mask="url(#b)"/><mask id="d" fill="#fff"><use xlink:href="#c"/></mask><path d="M69.34 37.474c-2.327 18.143-18.923 30.96-37.063 28.632C14.133 63.778 1.314 47.183 3.641 29.04 5.971 10.898 22.563-1.922 40.707.409 58.85 2.736 71.671 19.33 69.34 37.474" fill="#F15A24" mask="url(#d)"/><path d="M44.936 23.84c2.176 2.315.028 7.785.028 7.785s-2.123 7.734-14.278 17.762l-2.269-2.228 15.43-15.77.299-.402c.41-.668.75-7.191.79-7.146" fill="#999"/><path d="M44.936 23.84c2.176 2.315.028 7.785.028 7.785s-2.123 7.734-14.278 17.762l-2.269-2.228 15.43-15.77.299-.402c.41-.668.75-7.191.79-7.146z" stroke="#FFF" stroke-width=".959" stroke-linecap="round" stroke-linejoin="round"/><path d="M25.084 43.882l19.82-20.098c1.005 1.196 1.22 2.482.927 4.316-.196 1.269-2.39 3.807-2.39 3.807L28.417 47.159" fill="#666"/><path d="M25.084 43.882l19.82-20.098c1.005 1.196 1.22 2.482.927 4.316-.196 1.269-2.39 3.807-2.39 3.807L28.417 47.159" stroke="#FFF" stroke-width=".6" stroke-linecap="round" stroke-linejoin="round"/><path d="M44.936 23.856L25.084 43.881l.04-.039-.007.002-4.926-4.85c10.272-12.777 16.913-15.159 16.913-15.159s4.323-1.688 7.407-.377c.237.127.34.2.425.398" fill="#FF931E"/><path d="M44.936 23.856L25.084 43.881l.04-.039-.007.002-4.926-4.85c10.272-12.777 16.913-15.159 16.913-15.159s4.323-1.688 7.407-.377c.237.127.34.2.425.398z" stroke="#FFF" stroke-width=".959" stroke-linecap="round" stroke-linejoin="round"/><path d="M30.686 49.387c-4.735 3.9-10.796 10.027-19.036 14.3l1.833 7.834-7.767-7.65 19.368-19.99" fill="#999"/><path d="M30.686 49.387c-4.735 3.9-10.796 10.027-19.036 14.3l1.833 7.834-7.767-7.65 19.368-19.99" stroke="#FFF" stroke-width=".959" stroke-linecap="round" stroke-linejoin="round"/><path d="M20.326 39.059l4.81 4.792-11.115 2.408 6.198-7.287.107.087z" fill="#F15A24"/><path d="M20.326 39.059l4.81 4.792-11.115 2.408 6.198-7.287.107.087z" stroke="#FFF" stroke-width=".959" stroke-linecap="round" stroke-linejoin="round"/><path d="M43.04 18.044a7.762 7.762 0 0 0 6.857 8.57 7.763 7.763 0 0 0 8.569-6.855 7.761 7.761 0 0 0-6.857-8.57 7.759 7.759 0 0 0-8.569 6.855" fill="#999"/><path d="M43.04 18.044a7.762 7.762 0 0 0 6.857 8.57 7.763 7.763 0 0 0 8.569-6.855 7.761 7.761 0 0 0-6.857-8.57 7.759 7.759 0 0 0-8.569 6.855z" stroke="#FFF" stroke-width=".959" stroke-linecap="round" stroke-linejoin="round"/><path d="M57.352 23.19c1.432-2.091 1.358-5.222 1.069-6.148-.352-1.135-1.14-2.98-2.517-3.94l-7.275 6.701s5.592 6.008 5.737 6.028c.06.008 1.68-.735 2.986-2.642" fill="#666"/><path d="M57.352 23.19c1.432-2.091 1.358-5.222 1.069-6.148-.352-1.135-1.14-2.98-2.517-3.94l-7.275 6.701s5.592 6.008 5.737 6.028c.06.008 1.68-.735 2.986-2.642zm-1.469-5.25s.7 1.717-.188 3.054" stroke="#FFF" stroke-width=".959" stroke-linecap="round" stroke-linejoin="round"/><path d="M28.59 47.163l-8.032 1.43 4.847-5.037" fill="#666"/><path d="M28.59 47.163l-8.032 1.43 4.847-5.037m-4.893-4.462L30.72 48.7" stroke="#FFF" stroke-width=".959" stroke-linecap="round" stroke-linejoin="round"/></g></svg>